<svg width="31" height="31" viewBox="0 0 31 31" fill="none" xmlns="http://www.w3.org/2000/svg">
<path fill-rule="evenodd" clip-rule="evenodd" d="M20.1169 2.51453H3.7719C3.08038 2.51453 2.51459 3.08032 2.51459 3.77184V21.3742L7.54383 16.3449H20.1169C20.8084 16.3449 21.3742 15.7791 21.3742 15.0876V3.77184C21.3742 3.08032 20.8084 2.51453 20.1169 2.51453ZM18.8596 5.02908V13.8302H6.50022L5.75841 14.5721L5.02917 15.3013V5.02908H18.8596ZM23.8889 7.54381H26.4035C27.095 7.54381 27.6608 8.10959 27.6608 8.80112V27.6608L22.6316 22.6315H8.80117C8.10965 22.6315 7.54386 22.0657 7.54386 21.3742V18.8596H23.8889V7.54381Z" fill="#8885FF"/>
</svg>
