<svg width="31" height="31" viewBox="0 0 31 31" fill="none" xmlns="http://www.w3.org/2000/svg">
<path fill-rule="evenodd" clip-rule="evenodd" d="M20.117 2.51453H3.77196C3.08044 2.51453 2.51465 3.08032 2.51465 3.77184V21.3742L7.54389 16.3449H20.117C20.8085 16.3449 21.3743 15.7791 21.3743 15.0876V3.77184C21.3743 3.08032 20.8085 2.51453 20.117 2.51453ZM18.8597 5.02908V13.8302H6.50035L5.75853 14.5721L5.02929 15.3013V5.02908H18.8597ZM23.8889 7.54381H26.4035C27.095 7.54381 27.6608 8.10959 27.6608 8.80112V27.6608L22.6316 22.6315H8.80117C8.10965 22.6315 7.54386 22.0657 7.54386 21.3742V18.8596H23.8889V7.54381Z" fill="white"/>
</svg>
