<svg width="31" height="31" viewBox="0 0 31 31" fill="none" xmlns="http://www.w3.org/2000/svg">
<path fill-rule="evenodd" clip-rule="evenodd" d="M3.77194 4.40063H26.4035C27.7866 4.40063 28.9181 5.53221 28.9181 6.91526V23.2603C28.9181 24.6433 27.7866 25.7749 26.4035 25.7749H3.77194C2.3889 25.7749 1.25732 24.6433 1.25732 23.2603V6.91526C1.25732 5.53221 2.3889 4.40063 3.77194 4.40063ZM3.77191 6.91528V23.2603H13.8304V6.91528H3.77191ZM26.4035 23.2603H16.345V6.91528H26.4035V23.2603ZM25.1463 11.3158H17.6024V13.2018H25.1463V11.3158ZM17.6024 14.4591H25.1463V16.3451H17.6024V14.4591ZM25.1463 17.6024H17.6024V19.4883H25.1463V17.6024Z" fill="#F8B76B"/>
</svg>
